Coordinates
version=1
nRows=11
nColumns=40
inDegrees=yes

Units are S.I. units (second, meters, Newtons, ...)
Angles are in degrees.

endheader
time	pelvis_tilt	pelvis_list	pelvis_rotation	pelvis_tx	pelvis_ty	pelvis_tz	hip_flexion_r	hip_adduction_r	hip_rotation_r	knee_angle_r	knee_angle_r_beta	ankle_angle_r	subtalar_angle_r	mtp_angle_r	hip_flexion_l	hip_adduction_l	hip_rotation_l	knee_angle_l	knee_angle_l_beta	ankle_angle_l	subtalar_angle_l	mtp_angle_l	lumbar_extension	lumbar_bending	lumbar_rotation	arm_flex_r	arm_add_r	arm_rot_r	elbow_flex_r	pro_sup_r	wrist_flex_r	wrist_dev_r	arm_flex_l	arm_add_l	arm_rot_l	elbow_flex_l	pro_sup_l	wrist_flex_l	wrist_dev_l
      3.79000000	      2.39618045	    -15.17547022	      2.79752464	     -0.59299737	      0.85945319	      0.11560727	     13.54610852	     -8.62972568	      5.71006719	     44.02781986	     44.02781986	     24.16983946	      0.00000000	      0.00000000	     57.20712274	    -19.59031042	    -24.60817377	     88.52974604	     88.52974604	     12.56879730	      0.00000000	      0.00000000	    -51.89356172	      7.93761058	     11.96568181	     27.09528161	    -28.03129377	      0.17467355	    107.03588355	     82.29490799	      0.00000000	      0.00000000	    -13.21032820	    -11.99343822	      7.79217706	     49.67631683	     79.07187081	      0.00000000	      0.00000000
      3.79500000	      1.80264607	    -15.33466462	      2.87510826	     -0.56954600	      0.85835105	      0.11107752	     12.14571423	     -8.85272985	      5.37079180	     43.31552631	     43.31552631	     24.25353771	      0.00000000	      0.00000000	     58.57075185	    -19.95319133	    -25.47805741	     86.33772922	     86.33772922	     12.12166556	      0.00000000	      0.00000000	    -50.84291723	      7.40810283	     12.82032920	     27.66346356	    -27.10314565	      0.85446401	    108.88100999	     82.34606170	      0.00000000	      0.00000000	    -14.09376004	    -12.41457972	      6.84984562	     51.89326645	     79.13639544	      0.00000000	      0.00000000
      3.80000000	      1.18561171	    -15.50057336	      3.11278931	     -0.54586413	      0.85736218	      0.10617876	     10.63518337	     -9.07992470	      4.91661423	     42.41330887	     42.41330887	     24.06240966	      0.00000000	      0.00000000	     59.90252062	    -20.11978614	    -26.26091290	     84.02438408	     84.02438408	     11.63001383	      0.00000000	      0.00000000	    -49.68336731	      6.98940778	     13.57255482	     28.09771165	    -26.22578634	      1.75637162	    110.85888646	     79.72919991	      0.00000000	      0.00000000	    -15.03267768	    -12.90106303	      5.86597064	     54.24932384	     78.56868678	      0.00000000	      0.00000000
      3.80500000	      0.55984400	    -15.66571514	      3.50423511	     -0.52194600	      0.85649188	      0.10087817	      9.00703933	     -9.30618249	      4.36314755	     41.32680901	     41.32680901	     23.56690272	      0.00000000	      0.00000000	     61.17674500	    -20.08859901	    -26.97455358	     81.60935531	     81.60935531	     11.07863776	      0.00000000	      0.00000000	    -48.44030422	      6.67284431	     14.21064783	     28.43826348	    -25.37568210	      2.65655482	    112.82771835	     77.64752657	      0.00000000	      0.00000000	    -15.98359358	    -13.42322546	      4.72867527	     56.58412199	     79.07679001	      0.00000000	      0.00000000
      3.81000000	     -0.05781009	    -15.82271234	      4.03729989	     -0.49778246	      0.85575613	      0.09516754	      7.25293452	     -9.52235742	      3.73332758	     40.05998982	     40.05998982	     22.73851525	      0.00000000	      0.00000000	     62.36476135	    -19.87138991	    -27.64067430	     79.11775902	     79.11775902	     10.44827905	      0.00000000	      0.00000000	    -47.13977232	      6.44130391	     14.73123555	     28.69877742	    -24.53969551	      3.43575210	    114.69301274	     77.72557748	      0.00000000	      0.00000000	    -16.94843888	    -13.97915435	      3.55086785	     58.94639850	     79.17319442	      0.00000000	      0.00000000
      3.81500000	     -0.64978105	    -15.96419898	      4.69618643	     -0.47336209	      0.85517853	      0.08905684	      5.36583476	     -9.71722747	      3.05462983	     38.61700048	     38.61700048	     21.54934061	      0.00000000	      0.00000000	     63.43758194	    -19.48944160	    -28.28231338	     76.57899840	     76.57899840	      9.72048983	      0.00000000	      0.00000000	    -45.80703054	      6.27788642	     15.10658052	     28.83030755	    -23.76359952	      4.63139993	    116.75060108	     72.73412210	      0.00000000	      0.00000000	    -17.90666500	    -14.53620428	      2.18172706	     61.19439630	     80.79774028	      0.00000000	      0.00000000
      3.82000000	     -1.19984976	    -16.08352737	      5.46582480	     -0.44867592	      0.85478347	      0.08256060	      3.34228121	     -9.87946093	      2.35339351	     37.00387278	     37.00387278	     19.97217182	      0.00000000	      0.00000000	     64.36982445	    -18.96557044	    -28.91823328	     74.02324764	     74.02324764	      8.88246729	      0.00000000	      0.00000000	    -44.47330089	      6.15694368	     15.36297071	     28.88723704	    -22.98571154	      5.63901589	    118.63132745	     70.73640486	      0.00000000	      0.00000000	    -18.85787107	    -15.10665141	      0.80069575	     63.43515294	     81.69394788	      0.00000000	      0.00000000
      3.82500000	     -1.69474956	    -16.17440111	      6.33453875	     -0.42372225	      0.85459128	      0.07568625	      1.18457756	    -10.00003235	      1.65037263	     35.23104813	     35.23104813	     17.98003025	      0.00000000	      0.00000000	     65.14114498	    -18.31721939	    -29.56058487	     71.47723755	     71.47723755	      7.92982469	      0.00000000	      0.00000000	    -43.16274645	      6.06250837	     15.49793107	     28.85042146	    -22.22088659	      6.61171782	    120.40834666	     69.57446755	      0.00000000	      0.00000000	    -19.78518160	    -15.67555271	     -0.63386504	     65.61456550	     82.52369107	      0.00000000	      0.00000000
      3.83000000	     -2.12563509	    -16.23169664	      7.29312167	     -0.39851019	      0.85461589	      0.06843300	     -1.09617184	    -10.07172096	      0.96116238	     33.31637308	     33.31637308	     15.54741157	      0.00000000	      0.00000000	     65.73754802	    -17.55598723	    -30.21419235	     68.96322677	     68.96322677	      6.86842521	      0.00000000	      0.00000000	    -41.89670135	      5.98162356	     15.52053983	     28.71799660	    -21.47052557	      7.50967150	    122.04661594	     69.62674793	      0.00000000	      0.00000000	    -20.67245402	    -16.23506312	     -2.10638478	     67.72192809	     83.26343573	      0.00000000	      0.00000000
      3.83500000	     -2.49018144	    -16.25284533	      8.33217010	     -0.37306338	      0.85486156	      0.06079636	     -3.47499396	    -10.08824130	      0.29781277	     31.28971462	     31.28971462	     12.65537375	      0.00000000	      0.00000000	     66.15392591	    -16.69049835	    -30.87666399	     66.50016035	     66.50016035	      5.71304885	      0.00000000	      0.00000000	    -40.68846427	      5.90631723	     15.44363079	     28.47737846	    -20.75638349	      8.39635281	    123.59238329	     69.77191176	      0.00000000	      0.00000000	    -21.50973329	    -16.78403790	     -3.55601387	     69.78054443	     83.31544336	      0.00000000	      0.00000000
      3.84000000	     -2.79302228	    -16.23931419	      9.43868162	     -0.34742092	      0.85532401	      0.05277668	     -5.91028743	    -10.04326719	     -0.32688227	     29.19585110	     29.19585110	      9.30066994	      0.00000000	      0.00000000	     66.39451356	    -15.73116024	    -31.54011910	     64.10499124	     64.10499124	      4.48544366	      0.00000000	      0.00000000	    -39.54834885	      5.83012222	     15.28402128	     28.12561707	    -20.08667975	      9.24802902	    125.03734499	     70.03123906	      0.00000000	      0.00000000	    -22.25553904	    -17.29903522	     -5.08315402	     71.69272118	     84.39385329	      0.00000000	      0.00000000
